:SAMPLES-PER-SECOND 30
:FULLY-SPECIFIED
:DEGREES
366
root  66.7679 35.0826 19.4067 -140.119 -8.84995 178.672
RightUpLeg  -83.1645 -22.525 31.8825
RightLeg  47.4855 -3.49937 -4.42544
RightFoot  -10.7264 -0.00564398 -12.3567
RightToes  0.00048216 0.542163 -0.142577
Spine  69.9779 -5.59964 8.28612
Spine1  5.61083 0.914972 -4.04219
HEad  -47.1049 -1.79813 0.486598
LeftShoulder1  6.6648 -26.3123 -15.3808
LeftArm  -97.09 -72.031 25.2612
LeftForeArm  10.3338 -23.1743 -4.37337
LeftHand  -0.25398 0.0180481 5.50724
RightShoulder  1.9545 10.6011 6.17783
RightArm  -72.6628 57.7822 -9.96372
RightForeArm  -19.6947 25.6224 6.44253
RightHand  0.232866 8.03345 1.52913
LeftUpLeg  -90.4345 27.8215 -42.1579
LeftLeg  40.2464 -5.38986 -4.49014
LeftFoot  -1.80386 -0.854566 10.3447
LeftToes  1.06246e-005 4.65856e-005 -8.18501e-006
367
root  66.6649 35.3451 19.4926 -140.923 -8.6264 178.615
RightUpLeg  -81.6428 -23.2572 31.6219
RightLeg  45.6684 -3.24255 -3.8771
RightFoot  -10.0743 0.0677139 -12.1768
RightToes  0.00048216 0.542163 -0.142577
Spine  69.3802 -5.69553 8.2619
Spine1  5.32596 0.81231 -4.29973
HEad  -46.9686 -1.71923 0.228346
LeftShoulder1  6.83172 -26.7207 -15.6442
LeftArm  -90.925 -71.3983 20.9174
LeftForeArm  8.94777 -22.2148 -4.09054
LeftHand  -0.25398 0.0180481 5.50724
RightShoulder  2.17378 11.2121 7.20579
RightArm  -69.4403 57.4793 -7.32623
RightForeArm  -18.6909 25.9163 6.46814
RightHand  0.329122 7.56145 2.47528
LeftUpLeg  -88.7218 28.3871 -42.0696
LeftLeg  38.4723 -5.5989 -4.38143
LeftFoot  -1.22389 -0.909607 10.3261
LeftToes  1.06246e-005 4.65856e-005 -8.18501e-006
368
root  66.5286 35.6475 19.5831 -141.836 -8.36438 178.564
RightUpLeg  -79.8994 -24.0223 31.2286
RightLeg  43.6194 -3.02424 -3.39527
RightFoot  -9.2155 0.170917 -12.4705
RightToes  0.00048216 0.542163 -0.142577
Spine  68.6585 -5.76393 8.37574
Spine1  5.21566 0.775235 -4.40943
HEad  -46.7737 -1.7511 -0.331109
LeftShoulder1  7.00639 -27.2987 -15.7854
LeftArm  -83.9412 -70.4767 14.6596
LeftForeArm  8.77633 -22.3636 -4.16506
LeftHand  -0.25398 0.0180481 5.50724
RightShoulder  2.3959 11.7442 8.25903
RightArm  -65.8145 56.8211 -4.60101
RightForeArm  -17.327 26.7281 6.60151
RightHand  0.40012 6.99351 3.28522
LeftUpLeg  -86.6702 28.9862 -41.8712
LeftLeg  36.3718 -5.70922 -4.13512
LeftFoot  -0.477016 -0.99232 10.4355
LeftToes  1.06246e-005 4.65856e-005 -8.18501e-006
369
root  66.3638 35.9957 19.6707 -142.993 -8.04593 178.59
RightUpLeg  -77.7576 -24.9175 30.7761
RightLeg  41.2546 -2.70994 -2.84279
RightFoot  -8.06149 0.315097 -12.837
RightToes  0.00048216 0.542163 -0.142577
Spine  67.9093 -5.75302 8.5974
Spine1  5.25931 0.895539 -4.40404
HEad  -46.431 -1.97254 -1.27832
LeftShoulder1  7.29327 -27.8296 -16.3458
LeftArm  -75.7355 -69.3344 6.30115
LeftForeArm  8.87498 -23.699 -4.59935
LeftHand  -0.25398 0.0180481 5.50724
RightShoulder  2.6232 12.1495 9.42469
RightArm  -61.635 55.7495 -1.94557
RightForeArm  -16.3541 28.1482 6.90391
RightHand  0.405175 6.44429 3.52691
LeftUpLeg  -84.153 29.7439 -41.3318
LeftLeg  33.933 -5.75486 -3.79611
LeftFoot  0.36476 -1.04333 10.1308
LeftToes  1.06246e-005 4.65856e-005 -8.18501e-006
370
root  66.1722 36.3761 19.7528 -144.439 -7.70465 178.621
RightUpLeg  -75.2558 -26.1444 30.3168
RightLeg  38.6482 -2.11807 -2.0992
RightFoot  -6.72272 0.475528 -12.8505
RightToes  0.00048216 0.542163 -0.142577
Spine  67.0865 -5.71349 8.80216
Spine1  5.43625 1.01381 -4.26143
HEad  -45.837 -2.30089 -2.37407
LeftShoulder1  7.72194 -28.229 -17.4765
LeftArm  -66.5073 -67.3767 -3.03514
LeftForeArm  8.22587 -26.056 -5.1612
LeftHand  -0.25398 0.0180481 5.50724
RightShoulder  2.86242 12.3315 10.8927
RightArm  -57.4826 54.6352 0.894165
RightForeArm  -14.8047 30.1293 7.33249
RightHand  0.403893 5.93952 3.7116
LeftUpLeg  -81.0987 30.6021 -40.4609
LeftLeg  31.2364 -5.71653 -3.38249
LeftFoot  1.26937 -1.09102 9.77489
LeftToes  1.06246e-005 4.65856e-005 -8.18501e-006
371
root  65.959 36.7707 19.8344 -146.157 -7.35226 178.531
RightUpLeg  -72.5059 -27.705 29.6841
RightLeg  35.9848 -1.28086 -1.26758
RightFoot  -5.32467 0.636311 -12.7194
RightToes  0.00048216 0.542163 -0.142577
Spine  66.1678 -5.62691 8.84538
Spine1  5.75768 0.999081 -3.83784
HEad  -45.0161 -2.49997 -3.66544
LeftShoulder1  8.21732 -28.285 -19.1014
LeftArm  -57.9357 -64.6 -11.6274
LeftForeArm  7.64261 -29.0328 -5.88301
LeftHand  -0.25398 0.0180481 5.50724
RightShoulder  3.04824 12.1657 12.4206
RightArm  -53.476 53.6411 4.43856
RightForeArm  -12.1692 32.6788 7.88267
RightHand  0.433368 5.4078 4.25164
LeftUpLeg  -77.547 31.4127 -39.3051
LeftLeg  28.4981 -5.42405 -2.84205
LeftFoot  2.44698 -1.23686 10.0713
LeftToes  1.06246e-005 4.65856e-005 -8.18501e-006
372
root  65.7318 37.1585 19.9169 -148.104 -6.96753 178.327
RightUpLeg  -69.4979 -29.3437 28.6521
RightLeg  33.3871 -0.416685 -0.550911
RightFoot  -3.8714 0.801276 -12.6091
RightToes  0.00048216 0.542163 -0.142577
Spine  65.2368 -5.33735 8.69758
Spine1  6.02052 0.975682 -2.99214
HEad  -43.8666 -2.38681 -5.68051
LeftShoulder1  8.78046 -27.8741 -21.3811
LeftArm  -49.9507 -61.6139 -19.1286
LeftForeArm  7.82038 -32.0935 -6.6324
LeftHand  -0.25398 0.0180481 5.50724
RightShoulder  3.13905 11.7329 13.6865
RightArm  -48.9947 52.3074 8.56436
RightForeArm  -9.88523 35.7256 8.63401
RightHand  0.437295 4.74237 4.62619
LeftUpLeg  -73.6077 32.0825 -37.6748
LeftLeg  25.9608 -4.72009 -2.16164
LeftFoot  3.93952 -1.4062 10.2808
LeftToes  1.06246e-005 4.65856e-005 -8.18501e-006
373
root  65.4955 37.5195 19.997 -150.237 -6.6109 178.09
RightUpLeg  -66.1957 -30.9185 27.2068
RightLeg  30.8932 0.287349 -0.059039
RightFoot  -2.4143 0.943063 -12.2341
RightToes  0.00048216 0.542163 -0.142577
Spine  64.261 -4.89933 8.47387
Spine1  6.03906 1.0199 -1.98113
HEad  -42.303 -1.77214 -8.6005
LeftShoulder1  9.49439 -27.2021 -24.4872
LeftArm  -42.0991 -58.556 -25.1799
LeftForeArm  8.78108 -34.7297 -7.27654
LeftHand  -0.25398 0.0180481 5.50724
RightShoulder  3.26684 11.4379 15.0729
RightArm  -43.9329 50.259 12.0227
RightForeArm  -9.28832 38.8321 9.56613
RightHand  0.378237 3.93288 4.3686
LeftUpLeg  -69.4438 32.621 -35.607
LeftLeg  23.7371 -3.78482 -1.48304
LeftFoot  5.47156 -1.44685 9.54699
LeftToes  1.06246e-005 4.65856e-005 -8.18501e-006
